<?xml version="1.0" encoding="UTF-8"?>
<svg width="100" height="100" viewBox="0 0 100 100" xmlns="http://www.w3.org/2000/svg">
  <circle cx="50" cy="50" r="48" fill="#0d9488" opacity="0.1"/>
  <g transform="translate(25, 25)" fill="#0d9488">
    <!-- Center Person -->
    <circle cx="25" cy="25" r="10"/>
    <path d="M25 37 L25 50 M15 43 L35 43" stroke="#0d9488" stroke-width="4" stroke-linecap="round"/>
    
    <!-- Surrounding People -->
    <g transform="rotate(0 25 25)">
      <circle cx="50" cy="25" r="8"/>
      <path d="M50 35 L50 45 M43 40 L57 40" stroke="#0d9488" stroke-width="3" stroke-linecap="round"/>
    </g>
    <g transform="rotate(120 25 25)">
      <circle cx="50" cy="25" r="8"/>
      <path d="M50 35 L50 45 M43 40 L57 40" stroke="#0d9488" stroke-width="3" stroke-linecap="round"/>
    </g>
    <g transform="rotate(240 25 25)">
      <circle cx="50" cy="25" r="8"/>
      <path d="M50 35 L50 45 M43 40 L57 40" stroke="#0d9488" stroke-width="3" stroke-linecap="round"/>
    </g>
  </g>
</svg>
